<svg width="36" height="37" viewBox="0 0 36 37" fill="none" xmlns="http://www.w3.org/2000/svg">
<path d="M0 18.499C0 8.5579 8.05888 0.499023 18 0.499023C27.9411 0.499023 36 8.5579 36 18.499C36 28.4401 27.9411 36.499 18 36.499C8.05888 36.499 0 28.4401 0 18.499Z" fill="white"/>
<path fill-rule="evenodd" clip-rule="evenodd" d="M18 0.499023C8.05887 0.499023 0 8.5579 0 18.499C0 28.4401 8.05887 36.499 18 36.499C27.9411 36.499 36 28.4401 36 18.499C36 8.5579 27.9411 0.499023 18 0.499023ZM19.8762 19.2897V29.0826H15.8243V19.2901H13.8V15.9154H15.8243V13.8892C15.8243 11.1361 16.9674 9.49902 20.2149 9.49902H22.9186V12.8741H21.2286C19.9644 12.8741 19.8808 13.3457 19.8808 14.2259L19.8762 15.915H22.9377L22.5794 19.2897H19.8762Z" fill="url(#paint0_linear_67_535)"/>
<defs>
<linearGradient id="paint0_linear_67_535" x1="8.48167" y1="0.499027" x2="38.8719" y2="8.95965" gradientUnits="userSpaceOnUse">
<stop stop-color="#F4902C"/>
<stop offset="1" stop-color="#FEE105"/>
</linearGradient>
</defs>
</svg>
