<svg width="36" height="37" viewBox="0 0 36 37" fill="none" xmlns="http://www.w3.org/2000/svg">
<path d="M0 18.499C0 8.5579 8.05888 0.499023 18 0.499023C27.9411 0.499023 36 8.5579 36 18.499C36 28.4401 27.9411 36.499 18 36.499C8.05888 36.499 0 28.4401 0 18.499Z" fill="white"/>
<path fill-rule="evenodd" clip-rule="evenodd" d="M18 0.499023C8.05887 0.499023 0 8.5579 0 18.499C0 28.4401 8.05887 36.499 18 36.499C27.9411 36.499 36 28.4401 36 18.499C36 8.5579 27.9411 0.499023 18 0.499023ZM14.0425 8.95702C15.0665 8.91042 15.3937 8.89902 18.001 8.89902H17.998C20.606 8.89902 20.932 8.91042 21.956 8.95702C22.978 9.00383 23.6761 9.16563 24.2881 9.40303C24.9201 9.64804 25.4541 9.97604 25.9881 10.51C26.5221 11.0437 26.8501 11.5793 27.0961 12.2107C27.3321 12.8211 27.4941 13.5187 27.5421 14.5407C27.5881 15.5647 27.6001 15.8919 27.6001 18.4992C27.6001 21.1064 27.5881 21.4328 27.5421 22.4569C27.4941 23.4785 27.3321 24.1763 27.0961 24.7869C26.8501 25.4181 26.5221 25.9537 25.9881 26.4873C25.4547 27.0213 24.9199 27.3501 24.2887 27.5953C23.6779 27.8327 22.9794 27.9945 21.9574 28.0413C20.9334 28.0879 20.6072 28.0993 17.9998 28.0993C15.3927 28.0993 15.0657 28.0879 14.0417 28.0413C13.0199 27.9945 12.3221 27.8327 11.7113 27.5953C11.0802 27.3501 10.5446 27.0213 10.0112 26.4873C9.47742 25.9537 9.14941 25.4181 8.90401 24.7867C8.6668 24.1763 8.505 23.4787 8.458 22.4566C8.4116 21.4326 8.4 21.1064 8.4 18.4992C8.4 15.8919 8.412 15.5645 8.4578 14.5405C8.5038 13.5189 8.6658 12.8211 8.90381 12.2105C9.14981 11.5793 9.47782 11.0437 10.0118 10.51C10.5454 9.97624 11.081 9.64824 11.7125 9.40303C12.3229 9.16563 13.0205 9.00383 14.0425 8.95702Z" fill="url(#paint0_linear_67_541)"/>
<path fill-rule="evenodd" clip-rule="evenodd" d="M17.1396 10.6291C17.3068 10.6288 17.4867 10.6289 17.6809 10.629L18.0008 10.6291C20.564 10.6291 20.8678 10.6383 21.88 10.6843C22.816 10.7271 23.324 10.8835 23.6624 11.0149C24.1104 11.1889 24.4298 11.3969 24.7656 11.7329C25.1016 12.0689 25.3096 12.3889 25.484 12.8369C25.6154 13.175 25.772 13.683 25.8146 14.619C25.8606 15.631 25.8706 15.935 25.8706 18.4971C25.8706 21.0591 25.8606 21.3631 25.8146 22.3751C25.7718 23.3111 25.6154 23.8191 25.484 24.1572C25.31 24.6052 25.1016 24.9242 24.7656 25.26C24.4296 25.596 24.1106 25.804 23.6624 25.978C23.3244 26.11 22.816 26.266 21.88 26.3088C20.868 26.3548 20.564 26.3648 18.0008 26.3648C15.4374 26.3648 15.1336 26.3548 14.1216 26.3088C13.1856 26.2656 12.6776 26.1092 12.339 25.9778C11.891 25.8038 11.571 25.5958 11.235 25.2598C10.899 24.9238 10.691 24.6046 10.5166 24.1564C10.3852 23.8183 10.2286 23.3103 10.186 22.3743C10.14 21.3623 10.1308 21.0583 10.1308 18.4947C10.1308 15.931 10.14 15.6286 10.186 14.6166C10.2288 13.6806 10.3852 13.1726 10.5166 12.8341C10.6906 12.3861 10.899 12.0661 11.235 11.7301C11.571 11.3941 11.891 11.1861 12.339 11.0117C12.6774 10.8797 13.1856 10.7237 14.1216 10.6807C15.0072 10.6407 15.3504 10.6287 17.1396 10.6267V10.6291ZM23.1253 12.2231C22.4893 12.2231 21.9733 12.7385 21.9733 13.3747C21.9733 14.0107 22.4893 14.5267 23.1253 14.5267C23.7613 14.5267 24.2773 14.0107 24.2773 13.3747C24.2773 12.7387 23.7613 12.2227 23.1253 12.2227V12.2231ZM13.0708 18.4992C13.0708 15.7766 15.2783 13.5691 18.0009 13.5691H18.0007C20.7233 13.5691 22.9301 15.7766 22.9301 18.4992C22.9301 21.2218 20.7235 23.4282 18.0009 23.4282C15.2783 23.4282 13.0708 21.2218 13.0708 18.4992Z" fill="url(#paint1_linear_67_541)"/>
<path d="M18.0009 15.2991C19.7681 15.2991 21.2009 16.7317 21.2009 18.4991C21.2009 20.2663 19.7681 21.6991 18.0009 21.6991C16.2335 21.6991 14.8008 20.2663 14.8008 18.4991C14.8008 16.7317 16.2335 15.2991 18.0009 15.2991Z" fill="url(#paint2_linear_67_541)"/>
<defs>
<linearGradient id="paint0_linear_67_541" x1="8.48167" y1="0.499027" x2="38.8719" y2="8.95965" gradientUnits="userSpaceOnUse">
<stop stop-color="#F4902C"/>
<stop offset="1" stop-color="#FEE105"/>
</linearGradient>
<linearGradient id="paint1_linear_67_541" x1="13.8391" y1="10.6267" x2="27.1261" y2="14.3262" gradientUnits="userSpaceOnUse">
<stop stop-color="#F4902C"/>
<stop offset="1" stop-color="#FEE105"/>
</linearGradient>
<linearGradient id="paint2_linear_67_541" x1="16.3087" y1="15.2991" x2="21.7115" y2="16.8032" gradientUnits="userSpaceOnUse">
<stop stop-color="#F4902C"/>
<stop offset="1" stop-color="#FEE105"/>
</linearGradient>
</defs>
</svg>
