<svg width="36" height="37" viewBox="0 0 36 37" fill="none" xmlns="http://www.w3.org/2000/svg">
<path d="M0 18.499C0 8.5579 8.05888 0.499023 18 0.499023C27.9411 0.499023 36 8.5579 36 18.499C36 28.4401 27.9411 36.499 18 36.499C8.05888 36.499 0 28.4401 0 18.499Z" fill="white"/>
<path fill-rule="evenodd" clip-rule="evenodd" d="M0 18.499C0 28.4401 8.05887 36.499 18 36.499C27.9411 36.499 36 28.4401 36 18.499C36 8.5579 27.9411 0.499023 18 0.499023C8.05887 0.499023 0 8.5579 0 18.499ZM14.7 26.749L15.0063 22.1607L15.006 22.1605L23.3527 14.6283C23.7191 14.3032 23.2727 14.1446 22.7865 14.4395L12.4855 20.9383L8.03601 19.5495C7.07512 19.2553 7.06822 18.595 8.25174 18.1203L25.5903 11.4347C26.3822 11.0751 27.1465 11.6249 26.8442 12.8369L23.8915 26.7513C23.6853 27.7401 23.0878 27.9766 22.26 27.5199L17.7621 24.1967L15.6 26.299C15.5932 26.3057 15.5864 26.3123 15.5797 26.3188C15.3379 26.5542 15.1378 26.749 14.7 26.749Z" fill="url(#paint0_linear_67_552)"/>
<defs>
<linearGradient id="paint0_linear_67_552" x1="8.48167" y1="0.499027" x2="38.8719" y2="8.95965" gradientUnits="userSpaceOnUse">
<stop stop-color="#F4902C"/>
<stop offset="1" stop-color="#FEE105"/>
</linearGradient>
</defs>
</svg>
