<svg width="36" height="37" viewBox="0 0 36 37" fill="none" xmlns="http://www.w3.org/2000/svg">
<path d="M0 18.499C0 8.5579 8.05888 0.499023 18 0.499023C27.9411 0.499023 36 8.5579 36 18.499C36 28.4401 27.9411 36.499 18 36.499C8.05888 36.499 0 28.4401 0 18.499Z" fill="white"/>
<path fill-rule="evenodd" clip-rule="evenodd" d="M18 0.499023C8.05887 0.499023 0 8.5579 0 18.499C0 28.4401 8.05887 36.499 18 36.499C27.9411 36.499 36 28.4401 36 18.499C36 8.5579 27.9411 0.499023 18 0.499023ZM25.5013 12.311C26.3275 12.5377 26.9781 13.2057 27.1989 14.0539C27.6001 15.5913 27.6001 18.799 27.6001 18.799C27.6001 18.799 27.6001 22.0066 27.1989 23.5441C26.9781 24.3924 26.3275 25.0603 25.5013 25.2871C24.0041 25.699 18.0001 25.699 18.0001 25.699C18.0001 25.699 11.996 25.699 10.4987 25.2871C9.67255 25.0603 9.02193 24.3924 8.80113 23.5441C8.4 22.0066 8.4 18.799 8.4 18.799C8.4 18.799 8.4 15.5913 8.80113 14.0539C9.02193 13.2057 9.67255 12.5377 10.4987 12.311C11.996 11.899 18.0001 11.899 18.0001 11.899C18.0001 11.899 24.0041 11.899 25.5013 12.311Z" fill="url(#paint0_linear_67_558)"/>
<path d="M16.2 22.0991V16.0991L21 19.0992L16.2 22.0991Z" fill="url(#paint1_linear_67_558)"/>
<defs>
<linearGradient id="paint0_linear_67_558" x1="8.48167" y1="0.499027" x2="38.8719" y2="8.95965" gradientUnits="userSpaceOnUse">
<stop stop-color="#F4902C"/>
<stop offset="1" stop-color="#FEE105"/>
</linearGradient>
<linearGradient id="paint1_linear_67_558" x1="17.3309" y1="16.0991" x2="21.4907" y2="17.0256" gradientUnits="userSpaceOnUse">
<stop stop-color="#F4902C"/>
<stop offset="1" stop-color="#FEE105"/>
</linearGradient>
</defs>
</svg>
